<?xml version="1.0" encoding="utf-8"?>
<!-- Generator: Adobe Illustrator 25.0.0, SVG Export Plug-In . SVG Version: 6.00 Build 0)  -->
<svg version="1.1" id="Layer_1" xmlns="http://www.w3.org/2000/svg" xmlns:xlink="http://www.w3.org/1999/xlink" x="0px" y="0px"
	 viewBox="0 0 700 700" style="enable-background:new 0 0 700 700;" xml:space="preserve">
<style type="text/css">
	.st0{fill:#FFFFFF;}
</style>
<path class="st0" d="M186,596.4c-4.2-0.4-8.1-2.3-10.9-5.4s-4.4-7.2-4.4-11.4V142.8c0-21.4,17.8-39.2,39.2-39.2h280
	c21.4,0,39.2,17.8,39.2,39.2v436.8c0,4.1-1.5,8.1-4.2,11.2c-2.7,3.1-6.5,5.1-10.6,5.5c-4.1,0.5-8.2-0.6-11.6-2.9L350,488
	L197.2,593.4C194,595.7,190,596.7,186,596.4L186,596.4z M204.4,547.5l136-93.8c2.8-2,6.2-3,9.6-3s6.8,1.1,9.6,3l136,93.8V142.8
	c0-3.4-2.2-5.6-5.6-5.6H210c-3.4,0-5.6,2.2-5.6,5.6V547.5z"/>
</svg>
