<?xml version="1.0" encoding="utf-8"?>
<!-- Generator: Adobe Illustrator 25.0.0, SVG Export Plug-In . SVG Version: 6.00 Build 0)  -->
<svg version="1.1" id="Layer_1" xmlns="http://www.w3.org/2000/svg" xmlns:xlink="http://www.w3.org/1999/xlink" x="0px" y="0px"
	 viewBox="0 0 700 700" style="enable-background:new 0 0 700 700;" xml:space="preserve">
<style type="text/css">
	.st0{fill:#FFFFFF;}
</style>
<path class="st0" d="M507,297.4c24.5,0.1,48-9.9,64.7-27.8c16.8-17.9,25.3-41.9,23.6-66.4c-1.7-24.4-13.5-47.1-32.6-62.4
	c-19.1-15.4-43.7-22.1-67.9-18.5c-24.2,3.5-45.9,17-59.8,37.2s-18.7,45.2-13.4,69.2l-158.6,70.6c-14.4-20.3-36.8-33.5-61.6-36.3
	c-24.8-2.8-49.5,5.1-68.1,21.7c-18.6,16.6-29.2,40.3-29.2,65.2c0,24.9,10.6,48.6,29.2,65.2c18.6,16.6,43.3,24.5,68.1,21.7
	c24.7-2.8,47.1-16,61.6-36.3l158.6,70.6c-6.5,28.7,1.8,58.7,22,80c20.2,21.3,49.8,31.2,78.7,26.2c29-4.9,53.6-24,65.6-50.8
	c12-26.8,9.9-57.9-5.7-82.8c-15.6-24.9-42.6-40.4-71.9-41.3c-29.4-0.9-57.3,12.9-74.4,36.8l-158.6-70.6c2.8-12.3,2.8-25.2,0-37.5
	L436,260.6C452.3,283.6,478.8,297.4,507,297.4L507,297.4z M507,437.4c15.2,0,29.7,6.5,39.8,18c10,11.5,14.6,26.7,12.6,41.8
	c-2.1,15.1-10.5,28.6-23.3,36.9c-12.7,8.4-28.5,10.8-43.1,6.7c-14.7-4.1-26.8-14.4-33.4-28.1c-6.5-13.8-6.8-29.7-0.7-43.6
	c0.1-0.1,0.2-0.2,0.2-0.4l0-0.1c4.1-9.3,10.8-17.1,19.3-22.7C487,440.4,496.9,437.4,507,437.4L507,437.4z M192,402.4
	c-12.7,0-24.9-4.5-34.5-12.8c-9.6-8.3-15.8-19.8-17.6-32.3c-1.8-12.5,1-25.3,7.9-35.9c6.9-10.6,17.4-18.4,29.6-21.9
	c12.2-3.5,25.2-2.5,36.7,2.9c11.5,5.3,20.6,14.7,25.8,26.2l0,0.1c0.1,0.1,0.2,0.2,0.2,0.4c5.9,13.4,5.8,28.6-0.1,41.9l-0.1,0.2
	l0,0.1c-4.1,9.3-10.8,17.1-19.3,22.6C212.1,399.4,202.2,402.4,192,402.4L192,402.4z M507,157.4c12.7,0,24.9,4.5,34.5,12.8
	c9.6,8.3,15.8,19.8,17.6,32.3c1.8,12.5-1,25.3-7.9,35.9c-6.9,10.6-17.4,18.4-29.6,21.9c-12.2,3.5-25.2,2.5-36.7-2.9
	c-11.5-5.3-20.6-14.7-25.8-26.2l0-0.1L459,231h0c-7.2-16.2-5.7-35,4-49.8C472.7,166.3,489.3,157.4,507,157.4L507,157.4z"/>
</svg>
